# xmcd
#
# Track frame offsets: 
#        150
#        65498
#        97373
#        134835
#
# Disc length: 2512 seconds
#
# Revision: 3
# Processed by: cddbd v1.5.2PL0 Copyright (c) Steve Scherf et al.
# Submitted via: ExactAudioCopy v0.90b4
#
DISCID=4009ce04
DTITLE=Warda - Batwans Beek
DYEAR=1986
DGENRE=Ethnic
TTITLE0=Batwans Beek
TTITLE1=Benkhaf Ml Aeen
TTITLE2=Yakhsara
TTITLE3=Malleet Men El Ghorba
EXTD=
EXTT0=
EXTT1=
EXTT2=
EXTT3=
PLAYORDER=
